<svg width="20" height="16" viewBox="0 0 20 16" fill="none" xmlns="http://www.w3.org/2000/svg">
<path fill-rule="evenodd" clip-rule="evenodd" d="M2.2 1.2L9.76 6.87C9.82924 6.92193 9.91345 6.95 10 6.95C10.0865 6.95 10.1708 6.92193 10.24 6.87L17.8 1.2H2.2ZM18.8 1.95L10.96 7.83C10.683 8.03772 10.3462 8.15 10 8.15C9.65381 8.15 9.31695 8.03772 9.04 7.83L1.2 1.95V14.8H18.8V1.95ZM1 0H19C19.2652 0 19.5196 0.105357 19.7071 0.292893C19.8946 0.48043 20 0.734784 20 1V15C20 15.2652 19.8946 15.5196 19.7071 15.7071C19.5196 15.8946 19.2652 16 19 16H1C0.734784 16 0.48043 15.8946 0.292893 15.7071C0.105357 15.5196 0 15.2652 0 15V1C0 0.734784 0.105357 0.48043 0.292893 0.292893C0.48043 0.105357 0.734784 0 1 0Z" fill="#FFFF00" style="fill:#FFFF00;fill:color(display-p3 1.0000 1.0000 0.0000);fill-opacity:1;"/>
</svg>
