<svg width="24" height="24" viewBox="0 0 24 24" fill="none" xmlns="http://www.w3.org/2000/svg">
<path fill-rule="evenodd" clip-rule="evenodd" d="M12 2C6.477 2 2 6.477 2 12C2 17.523 6.477 22 12 22C17.523 22 22 17.523 22 12C22 6.477 17.523 2 12 2ZM0 12C0 5.3725 5.3725 0 12 0C18.6275 0 24 5.3725 24 12C24 18.6275 18.6275 24 12 24C5.3725 24 0 18.6275 0 12Z" fill="#FFFF00" style="fill:#FFFF00;fill:color(display-p3 1.0000 1.0000 0.0000);fill-opacity:1;"/>
<path fill-rule="evenodd" clip-rule="evenodd" d="M9.59148 22.7359C9.49482 22.6109 9.49482 21.4986 9.59148 19.3989C8.55582 19.4349 7.90132 19.3631 7.62798 19.1834C7.21848 18.9139 6.80798 18.0834 6.44448 17.4979C6.08098 16.9124 5.27298 16.8199 4.94698 16.6889C4.62098 16.5584 4.53898 16.0249 5.84548 16.4279C7.15198 16.8314 7.21548 17.9304 7.62798 18.1869C8.04048 18.4439 9.02598 18.3319 9.47248 18.1259C9.91898 17.9199 9.88598 17.1539 9.96598 16.8504C10.0665 16.5669 9.71148 16.5039 9.70398 16.5019C9.26748 16.5019 6.97698 16.0034 6.34748 13.7854C5.71848 11.5669 6.52898 10.1169 6.96148 9.49391C7.24948 9.07791 7.22398 8.19224 6.88498 6.83691C8.11698 6.67891 9.06748 7.06657 9.73648 7.99991C9.73748 8.00491 10.6145 7.47841 12 7.47841C13.3855 7.47841 13.8775 7.90741 14.257 7.99991C14.6365 8.09241 14.94 6.36691 17.2835 6.83691C16.794 7.79841 16.3845 8.99991 16.697 9.49391C17.01 9.98741 18.237 11.5574 17.4835 13.7854C16.9805 15.2704 15.9923 16.1759 14.519 16.5019C14.3503 16.5559 14.266 16.6429 14.266 16.7629C14.266 16.9429 14.494 16.9624 14.823 17.8059C15.043 18.3679 15.059 19.9737 14.871 22.6234C14.3953 22.7444 14.0253 22.8257 13.761 22.8674C13.2925 22.9409 12.7835 22.9824 12.2835 22.9979C11.7835 23.0139 11.61 23.0124 10.9185 22.9479C10.4719 22.9071 10.0286 22.8362 9.59148 22.7359Z" fill="#FFFF00" style="fill:#FFFF00;fill:color(display-p3 1.0000 1.0000 0.0000);fill-opacity:1;"/>
</svg>
