<svg width="83" height="24" viewBox="0 0 83 24" fill="none" xmlns="http://www.w3.org/2000/svg">
<path d="M28.2205 13.3179C28.5111 13.3179 28.7744 13.3436 29.0103 13.3949C29.2462 13.4462 29.4701 13.5179 29.6821 13.6103L29.4051 14.2513C29.2308 14.1761 29.0462 14.1197 28.8513 14.0821C28.6564 14.0444 28.4547 14.0256 28.2462 14.0256C27.8701 14.0256 27.5863 14.0991 27.3949 14.2462C27.2068 14.3932 27.1128 14.6188 27.1128 14.9231V16.0205H28.9436L28.8513 16.6974H27.1128V21H26.2513V16.6974H24.9641V16.0205H26.2513V14.9436C26.2513 14.6085 26.3368 14.3197 26.5077 14.0769C26.6821 13.8342 26.9179 13.6479 27.2154 13.5179C27.5128 13.3846 27.8479 13.3179 28.2205 13.3179ZM33.6395 15.4872C34.1489 15.4872 34.5746 15.6034 34.9164 15.8359C35.2617 16.065 35.5199 16.3897 35.6908 16.8103C35.8652 17.2308 35.9523 17.7265 35.9523 18.2974C35.9523 18.8479 35.8635 19.335 35.6857 19.759C35.5079 20.1829 35.2464 20.5162 34.9011 20.759C34.5592 20.9983 34.1352 21.1179 33.6293 21.1179C33.1233 21.1179 32.6976 21.0017 32.3523 20.7692C32.007 20.5368 31.7455 20.2103 31.5677 19.7897C31.3934 19.3658 31.3062 18.8718 31.3062 18.3077C31.3062 17.7504 31.3951 17.2598 31.5729 16.8359C31.7506 16.412 32.0122 16.0821 32.3575 15.8462C32.7062 15.6068 33.1335 15.4872 33.6395 15.4872ZM33.6395 16.1897C33.1746 16.1897 32.8224 16.3624 32.5831 16.7077C32.3472 17.0496 32.2293 17.5829 32.2293 18.3077C32.2293 19.0188 32.3455 19.547 32.578 19.8923C32.8139 20.2376 33.1643 20.4103 33.6293 20.4103C34.0942 20.4103 34.4429 20.2376 34.6754 19.8923C34.9113 19.547 35.0293 19.0154 35.0293 18.2974C35.0293 17.5795 34.913 17.0496 34.6805 16.7077C34.4481 16.3624 34.1011 16.1897 33.6395 16.1897ZM38.1867 21V20.3385H39.0278V16.2615H38.1867V15.6H39.6842L39.8431 16.8769C40.0517 16.4325 40.3047 16.0889 40.6021 15.8462C40.8996 15.6034 41.2927 15.4821 41.7816 15.4821C41.932 15.4821 42.0654 15.494 42.1816 15.5179C42.3013 15.5385 42.4226 15.5658 42.5457 15.6L42.2944 16.3692C42.1816 16.3385 42.079 16.3162 41.9867 16.3026C41.8944 16.2855 41.7884 16.2769 41.6688 16.2769C41.2551 16.2769 40.8996 16.4239 40.6021 16.7179C40.3047 17.012 40.0671 17.4564 39.8893 18.0513V20.3385H40.9867V21H38.1867ZM41.7149 17.4256V16.2513L41.8021 15.6H42.5457L42.4226 17.4256H41.7149ZM48.2211 15.6V20.1333C48.2211 20.735 48.0861 21.2376 47.816 21.641C47.5459 22.0479 47.1545 22.3744 46.6416 22.6205C46.1288 22.8667 45.5083 23.0513 44.7801 23.1744L44.6365 22.5077C45.1699 22.4188 45.6416 22.2855 46.0519 22.1077C46.4622 21.9299 46.7818 21.6855 47.0109 21.3744C47.2434 21.0667 47.3596 20.6718 47.3596 20.1897V16.2821H45.1134V15.6H48.2211ZM47.416 13.0718C47.6075 13.0718 47.7613 13.1299 47.8775 13.2462C47.9938 13.3624 48.0519 13.5043 48.0519 13.6718C48.0519 13.8462 47.9938 13.9932 47.8775 14.1128C47.7613 14.2291 47.6075 14.2872 47.416 14.2872C47.2314 14.2872 47.0827 14.2291 46.9699 14.1128C46.857 13.9932 46.8006 13.8462 46.8006 13.6718C46.8006 13.5043 46.857 13.3624 46.9699 13.2462C47.0827 13.1299 47.2314 13.0718 47.416 13.0718ZM55.1068 19.8205C55.1068 20.0359 55.1427 20.1932 55.2145 20.2923C55.2863 20.3915 55.3974 20.465 55.5478 20.5128L55.3376 21.1179C55.1051 21.0872 54.9017 21.0137 54.7273 20.8974C54.553 20.7778 54.4265 20.5983 54.3478 20.359C54.153 20.6085 53.9102 20.7983 53.6196 20.9282C53.329 21.0547 53.0077 21.1179 52.6555 21.1179C52.1154 21.1179 51.6897 20.9658 51.3786 20.6615C51.0675 20.3573 50.9119 19.9538 50.9119 19.4513C50.9119 18.894 51.129 18.4667 51.5632 18.1692C51.9974 17.8718 52.6248 17.7231 53.4453 17.7231H54.2401V17.2718C54.2401 16.8821 54.1256 16.6068 53.8966 16.4462C53.6709 16.2821 53.3564 16.2 52.953 16.2C52.7752 16.2 52.5666 16.2222 52.3273 16.2667C52.088 16.3077 51.8282 16.3778 51.5478 16.4769L51.3222 15.8256C51.6538 15.7026 51.9649 15.6154 52.2555 15.5641C52.5461 15.5128 52.8231 15.4872 53.0863 15.4872C53.7598 15.4872 54.2641 15.6444 54.5991 15.959C54.9376 16.2701 55.1068 16.694 55.1068 17.2308V19.8205ZM52.876 20.4615C53.1427 20.4615 53.3974 20.3949 53.6401 20.2615C53.8829 20.1248 54.0829 19.9368 54.2401 19.6974V18.3077H53.4607C52.8658 18.3077 52.4453 18.4103 52.1991 18.6154C51.9564 18.8205 51.835 19.0957 51.835 19.441C51.835 19.7761 51.9205 20.0308 52.0914 20.2051C52.2658 20.3761 52.5273 20.4615 52.876 20.4615ZM62.0797 20.7282C61.8951 20.8513 61.6711 20.947 61.4079 21.0154C61.1446 21.0838 60.8865 21.1179 60.6335 21.1179C60.0523 21.1179 59.6045 20.9658 59.2899 20.6615C58.9754 20.3573 58.8181 19.9658 58.8181 19.4872V16.2667H57.5771V15.6H58.8181V14.3744L59.6797 14.2718V15.6H61.5463L61.4438 16.2667H59.6797V19.4769C59.6797 19.7778 59.7583 20.0068 59.9156 20.1641C60.0762 20.3214 60.3412 20.4 60.7104 20.4C60.9121 20.4 61.0985 20.3761 61.2694 20.3282C61.4404 20.2803 61.5993 20.2188 61.7463 20.1436L62.0797 20.7282ZM65.0218 18.6051C65.0389 19.0222 65.1192 19.3641 65.2628 19.6308C65.4064 19.894 65.5961 20.0889 65.832 20.2154C66.0679 20.3385 66.3243 20.4 66.6012 20.4C66.8782 20.4 67.1277 20.359 67.35 20.2769C67.5756 20.1949 67.8064 20.0735 68.0423 19.9128L68.4474 20.4821C68.1944 20.6803 67.9055 20.8359 67.5807 20.9487C67.2594 21.0615 66.9294 21.1179 66.591 21.1179C66.0679 21.1179 65.6218 21 65.2525 20.7641C64.8833 20.5282 64.6012 20.2 64.4064 19.7795C64.2149 19.3556 64.1192 18.865 64.1192 18.3077C64.1192 17.7607 64.2166 17.2752 64.4115 16.8513C64.6064 16.4274 64.8799 16.094 65.232 15.8513C65.5841 15.6085 65.9995 15.4872 66.4782 15.4872C66.9329 15.4872 67.3243 15.5949 67.6525 15.8103C67.9807 16.0222 68.232 16.3265 68.4064 16.7231C68.5841 17.1162 68.673 17.5863 68.673 18.1333C68.673 18.2256 68.6713 18.3128 68.6679 18.3949C68.6645 18.4735 68.6594 18.5436 68.6525 18.6051H65.0218ZM66.4884 16.1949C66.0884 16.1949 65.7534 16.3368 65.4833 16.6205C65.2166 16.9043 65.0645 17.3436 65.0269 17.9385H67.8423C67.832 17.3607 67.7055 16.9265 67.4628 16.6359C67.22 16.3419 66.8953 16.1949 66.4884 16.1949ZM73.3382 20.3744C73.6083 20.3744 73.8596 20.3299 74.092 20.241C74.3279 20.1521 74.545 20.0393 74.7433 19.9026L75.1638 20.4667C74.9279 20.6684 74.6442 20.8274 74.3126 20.9436C73.9809 21.0598 73.6561 21.1179 73.3382 21.1179C72.8014 21.1179 72.3433 21.0034 71.9638 20.7744C71.5878 20.5419 71.3006 20.2171 71.1023 19.8C70.904 19.3795 70.8049 18.8872 70.8049 18.3231C70.8049 17.7829 70.904 17.2991 71.1023 16.8718C71.304 16.441 71.5929 16.1026 71.969 15.8564C72.3485 15.6103 72.8083 15.4872 73.3485 15.4872C73.6938 15.4872 74.0168 15.5402 74.3177 15.6462C74.622 15.7487 74.9006 15.9043 75.1536 16.1128L74.7331 16.6872C74.504 16.5265 74.2732 16.4068 74.0408 16.3282C73.8117 16.2462 73.5775 16.2051 73.3382 16.2051C72.8732 16.2051 72.4903 16.3795 72.1895 16.7282C71.8886 17.0769 71.7382 17.6085 71.7382 18.3231C71.7382 18.8017 71.8066 19.1932 71.9433 19.4974C72.0835 19.7983 72.2732 20.0205 72.5126 20.1641C72.7553 20.3043 73.0305 20.3744 73.3382 20.3744ZM78.3111 13.3436V16.3385C78.523 16.0547 78.7829 15.8427 79.0905 15.7026C79.4017 15.559 79.7162 15.4872 80.0341 15.4872C80.5606 15.4872 80.9452 15.6274 81.188 15.9077C81.4307 16.188 81.5521 16.5778 81.5521 17.0769V21H80.6905V17.0974C80.6905 16.7726 80.6153 16.5368 80.4649 16.3897C80.3145 16.2393 80.0786 16.1641 79.7572 16.1641C79.5521 16.1641 79.3572 16.2103 79.1726 16.3026C78.988 16.3949 78.8222 16.5094 78.6752 16.6462C78.5282 16.7829 78.4068 16.9231 78.3111 17.0667V21H77.4495V13.4359L78.3111 13.3436Z" fill="#FFFF00" style="fill:#FFFF00;fill:color(display-p3 1.0000 1.0000 0.0000);fill-opacity:1;"/>
<path d="M18.15 2H6.65L0.9 12L6.65 22H18.15L23.9 12L18.15 2ZM16.8784 19.7778H7.92163L3.45433 12L7.92163 4.22222H16.8673L21.3346 12L16.8784 19.7778Z" fill="#FFFF00" style="fill:#FFFF00;fill:color(display-p3 1.0000 1.0000 0.0000);fill-opacity:1;"/>
</svg>
