<svg width="25" height="25" viewBox="0 0 25 25" fill="none" xmlns="http://www.w3.org/2000/svg">
<path d="M15.9521 18.54C15.8523 18.295 15.6594 18.0996 15.4158 17.9965C15.1721 17.8934 14.8975 17.8911 14.6521 17.99C12.9672 18.6649 11.0871 18.6649 9.40215 17.99C9.28067 17.9401 9.15056 17.9146 9.01924 17.915C8.88791 17.9154 8.75795 17.9416 8.63677 17.9922C8.51559 18.0428 8.40557 18.1168 8.31298 18.2099C8.22039 18.3031 8.14705 18.4135 8.09715 18.535C8.04724 18.6565 8.02175 18.7866 8.02214 18.9179C8.02252 19.0492 8.04876 19.1792 8.09937 19.3004C8.14998 19.4216 8.22396 19.5316 8.31709 19.6242C8.41022 19.7168 8.52067 19.7901 8.64215 19.84C10.8099 20.7184 13.2344 20.7184 15.4021 19.84C15.6471 19.7401 15.8426 19.5473 15.9457 19.3036C16.0488 19.0599 16.0511 18.7854 15.9521 18.54ZM15.9621 5.71C16.9056 6.35247 17.6777 7.21591 18.211 8.22509C18.7443 9.23426 19.0228 10.3586 19.0221 11.5C19.0199 11.794 19.0032 12.0877 18.9721 12.38C18.9564 12.5113 18.9666 12.6445 19.0023 12.7718C19.038 12.8992 19.0985 13.0183 19.1802 13.1223C19.2619 13.2263 19.3633 13.3131 19.4786 13.378C19.5939 13.4428 19.7208 13.4842 19.8521 13.5C19.9835 13.5158 20.1166 13.5055 20.244 13.4698C20.3713 13.4341 20.4904 13.3737 20.5944 13.292C20.6984 13.2102 20.7853 13.1088 20.8501 12.9935C20.9149 12.8783 20.9564 12.7513 20.9721 12.62C21.015 12.2483 21.0317 11.874 21.0221 11.5C21.0228 10.0335 20.6651 8.58913 19.9801 7.29245C19.2952 5.99577 18.3038 4.88611 17.0921 4.06C16.9839 3.98388 16.8616 3.93002 16.7323 3.90153C16.6031 3.87303 16.4694 3.87048 16.3392 3.89402C16.209 3.91756 16.0847 3.96671 15.9736 4.03864C15.8625 4.11057 15.7668 4.20384 15.692 4.31304C15.6172 4.42224 15.5648 4.54519 15.5379 4.67478C15.511 4.80437 15.5101 4.93801 15.5352 5.06796C15.5604 5.1979 15.611 5.32157 15.6843 5.43178C15.7576 5.54199 15.852 5.63656 15.9621 5.71ZM4.20214 13.49C4.4644 13.4575 4.70312 13.3225 4.86614 13.1145C5.02916 12.9065 5.10322 12.6424 5.07214 12.38C5.0578 12.0868 5.0578 11.7932 5.07214 11.5C5.06591 10.363 5.33672 9.24162 5.86117 8.23279C6.38562 7.22397 7.14792 6.35808 8.08215 5.71C8.19225 5.63656 8.28668 5.54199 8.35997 5.43178C8.43325 5.32157 8.48393 5.1979 8.50906 5.06796C8.53419 4.93801 8.53327 4.80437 8.50637 4.67478C8.47946 4.54519 8.4271 4.42224 8.35231 4.31304C8.27753 4.20384 8.18181 4.11057 8.07071 4.03864C7.95961 3.96671 7.83533 3.91756 7.70509 3.89402C7.57485 3.87048 7.44123 3.87303 7.31198 3.90153C7.18273 3.93002 7.06042 3.98388 6.95214 4.06C5.74051 4.88611 4.74909 5.99577 4.06415 7.29245C3.37921 8.58913 3.0215 10.0335 3.02215 11.5C3.01923 11.8745 3.04262 12.2488 3.09214 12.62C3.12467 12.8823 3.25967 13.121 3.46766 13.284C3.67565 13.447 3.93971 13.5211 4.20214 13.49ZM15.6921 9.5C15.7301 9.50119 15.7679 9.4937 15.8025 9.4781C15.8372 9.46251 15.8678 9.43922 15.8921 9.41C15.9145 9.38032 15.9304 9.34635 15.939 9.31021C15.9476 9.27408 15.9487 9.23656 15.9421 9.2C15.7401 8.30128 15.2384 7.49798 14.5196 6.92203C13.8007 6.34607 12.9073 6.0317 11.9861 6.03053C11.065 6.02937 10.1708 6.34149 9.45049 6.91563C8.73015 7.48976 8.22646 8.29179 8.02215 9.19C8.00537 9.22424 7.99664 9.26187 7.99664 9.3C7.99664 9.33813 8.00537 9.37576 8.02215 9.41C8.07138 9.46354 8.13953 9.49582 8.21214 9.5H15.6921ZM9.52215 2.5C9.52215 3.16304 9.78554 3.79893 10.2544 4.26777C10.7232 4.73661 11.3591 5 12.0221 5C12.6852 5 13.3211 4.73661 13.7899 4.26777C14.2588 3.79893 14.5221 3.16304 14.5221 2.5C14.5221 1.83696 14.2588 1.20107 13.7899 0.732233C13.3211 0.263392 12.6852 0 12.0221 0C11.3591 0 10.7232 0.263392 10.2544 0.732233C9.78554 1.20107 9.52215 1.83696 9.52215 2.5ZM20.0221 20.5C19.0892 20.4926 18.1823 20.8068 17.4538 21.3895C16.7253 21.9723 16.2197 22.7882 16.0221 23.7C16.0148 23.7359 16.0155 23.773 16.024 23.8086C16.0326 23.8443 16.049 23.8776 16.0719 23.9062C16.0948 23.9348 16.1237 23.9581 16.1566 23.9743C16.1894 23.9905 16.2255 23.9993 16.2621 24H23.7221C23.7978 23.9963 23.8692 23.9642 23.9221 23.91C23.937 23.8752 23.9447 23.8378 23.9447 23.8C23.9447 23.7622 23.937 23.7248 23.9221 23.69C23.7263 22.7968 23.2347 21.9958 22.5268 21.4168C21.819 20.8379 20.9365 20.5148 20.0221 20.5ZM17.5521 17C17.5521 17.663 17.8155 18.2989 18.2844 18.7678C18.7532 19.2366 19.3891 19.5 20.0521 19.5C20.7152 19.5 21.3511 19.2366 21.8199 18.7678C22.2888 18.2989 22.5521 17.663 22.5521 17C22.5521 16.337 22.2888 15.7011 21.8199 15.2322C21.3511 14.7634 20.7152 14.5 20.0521 14.5C19.3891 14.5 18.7532 14.7634 18.2844 15.2322C17.8155 15.7011 17.5521 16.337 17.5521 17ZM4.02214 20.5C3.08925 20.4926 2.18227 20.8068 1.45378 21.3895C0.72529 21.9723 0.21973 22.7882 0.022145 23.7C0.00754229 23.7331 0 23.7688 0 23.805C0 23.8412 0.00754229 23.8769 0.022145 23.91C0.0544178 23.9569 0.101749 23.9914 0.156304 24.0078C0.210859 24.0242 0.269368 24.0214 0.322145 24H7.77214C7.81069 24.0011 7.84898 23.9933 7.88401 23.9772C7.91905 23.9611 7.94987 23.9371 7.97408 23.907C7.99829 23.877 8.01523 23.8418 8.02357 23.8042C8.0319 23.7665 8.03142 23.7274 8.02215 23.69C7.82085 22.781 7.31398 21.9684 6.58606 21.3879C5.85813 20.8074 4.95318 20.494 4.02214 20.5ZM1.59215 17C1.59215 17.663 1.85554 18.2989 2.32438 18.7678C2.79322 19.2366 3.4291 19.5 4.09214 19.5C4.75519 19.5 5.39107 19.2366 5.85991 18.7678C6.32875 18.2989 6.59214 17.663 6.59214 17C6.59214 16.337 6.32875 15.7011 5.85991 15.2322C5.39107 14.7634 4.75519 14.5 4.09214 14.5C3.4291 14.5 2.79322 14.7634 2.32438 15.2322C1.85554 15.7011 1.59215 16.337 1.59215 17Z" fill="#FFFF00" style="fill:#FFFF00;fill:color(display-p3 1.0000 1.0000 0.0000);fill-opacity:1;"/>
</svg>
